<?xml version="1.0" encoding="utf-8"?>
<!-- Generator: Adobe Illustrator 21.1.0, SVG Export Plug-In . SVG Version: 6.00 Build 0)  -->
<svg version="1.1" id="Layer_1" xmlns="http://www.w3.org/2000/svg" xmlns:xlink="http://www.w3.org/1999/xlink" x="0px" y="0px"
	 viewBox="0 0 472 109" style="enable-background:new 0 0 472 109;" xml:space="preserve">
<style type="text/css">
	.st0{fill:#332F54;}
</style>
<g>
	<path class="st0" d="M184.8,41.9c-1.7-0.3-3.2-0.5-4.5-0.5c-7.7,0-14.4,3.7-14.4,15.8v25.5h-15.1V26.9h12.2l1.7,9
		c3.1-7.4,11.9-9.4,16.6-9.4c1.2,0,2.4,0.1,3.5,0.2V41.9z"/>
	<rect x="258.2" y="0.6" class="st0" width="15.1" height="82.1"/>
	<path class="st0" d="M64,59C59.8,64.8,52,69.1,43.1,69.1c-12.9,0-26-9.4-26-26.5c0-18.3,13.7-26.9,25.8-26.9
		c9.3,0,15.6,4.4,20,11.3l11.3-10C67.4,7.1,56.7,0.6,42.9,0.6c-21.5,0-42,16.3-42,42c0,25.6,19.7,41.9,42.2,41.9
		c13.7,0,24.6-6.9,31.4-16.2L64,59z"/>
	<path class="st0" d="M220,70.7c-7.4,0-14.7-5.4-14.7-15.9c0-10.5,7.3-15.9,14.7-15.9c7.4,0,14.7,5.3,14.7,15.9
		C234.7,65.4,227.4,70.7,220,70.7 M220,25.2c-16.7,0-29.8,12.4-29.8,29.6c0,17.1,13.1,29.6,29.8,29.6c16.7,0,29.8-12.5,29.8-29.6
		C249.8,37.6,236.7,25.2,220,25.2"/>
	<path class="st0" d="M312.2,70.7c-7.4,0-14.7-5.4-14.7-15.9c0-10.5,7.3-15.9,14.7-15.9c7.4,0,14.7,5.3,14.7,15.9
		C326.9,65.4,319.6,70.7,312.2,70.7 M312.2,25.2c-16.7,0-29.8,12.4-29.8,29.6c0,17.1,13.1,29.6,29.8,29.6
		c16.7,0,29.8-12.5,29.8-29.6C342,37.6,328.9,25.2,312.2,25.2"/>
	<path class="st0" d="M121.4,76.7c-3.1,5.2-9.5,7.5-15.4,7.5c-13.5,0-21.2-9.9-21.2-22V26.9h15.1v32.2c0,6.2,3.2,11.2,10.2,11.2
		c6.7,0,10.5-4.5,10.5-11V26.9h15.1v45.7v10.1h-13.2L121.4,76.7z"/>
	<path class="st0" d="M392,65.6c5.2-4.1,8.9-10.1,8.9-17.2c0-6-1.8-9.8-4.9-13.9l6.4-6.4l-8.3-8.3l-7.5,7.5
		c-3.1-1.3-6.6-2.1-10.3-2.1c-13.9,0-24.5,9.4-24.5,23.1c0,7.2,4,13.9,8.8,17.3c-2.7,1.8-5.2,4.2-6.7,7.2l-0.3,0.7l11.7,5.8l0.3-0.7
		c1.9-4,6.2-6.6,10.8-6.6c6.8,0,12,5,12,12.2c0,6.5-5.5,11.7-12,11.7c-3.7,0-8.8-1.8-10.9-6.9l-0.3-0.7l-12,5.9l0.3,0.7
		c4,8.3,12.7,13.4,22.7,13.4c14.5,0,25.5-9.9,25.5-23.6C401.8,76.5,397.6,70.1,392,65.6 M376.4,37.5c6.3,0,10.9,4.6,10.9,11
		c0,6.3-4.6,11-10.9,11c-6.1,0-10.9-4.7-10.9-11C365.5,41.9,370.2,37.5,376.4,37.5"/>
	<polyline class="st0" points="433.2,75.7 409.5,26.9 426.4,26.9 441.2,59.6 	"/>
	<polyline class="st0" points="439.9,59.6 455,26.9 471.1,26.9 431.3,107.6 415.3,107.6 431.4,76.4 	"/>
</g>
</svg>
